# xmcd
#
# Track frame offsets:
#	150
#	45934
#	65520
#	109033
#	126261
#	164314
#	202807
#	234052
#	269928
#
# Disc length: 3840 seconds
#
# Revision: 1
# Processed by: cddbd v1.5.2PL0 Copyright (c) Steve Scherf et al.
# Submitted via: audiograbber 1.83.01
#
DISCID=750efe09
DTITLE=Grateful Dead - 77-09-28 Paramount Northwest Theatre, Seattle WA
DYEAR=1900
DGENRE=
TTITLE0=Tennessee Jed
TTITLE1=Passenger
TTITLE2=Peggy-O
TTITLE3=Me and My Uncle
TTITLE4=Friend Of The Devil
TTITLE5=The Music Never Stopped
TTITLE6=Bertha
TTITLE7=Good Lovin
TTITLE8=Dire Wolf
EXTD=
EXTT0=
EXTT1=
EXTT2=
EXTT3=
EXTT4=
EXTT5=
EXTT6=
EXTT7=
EXTT8=
PLAYORDER=
